<svg viewBox="0 0 64 64" xmlns="http://www.w3.org/2000/svg" style="image-rendering: pixelated; image-rendering: -moz-crisp-edges; image-rendering: crisp-edges;">
    <defs>
        <!-- Skin tone gradient -->
        <linearGradient id="skinGradient" x1="0%" y1="0%" x2="0%" y2="100%">
            <stop offset="0%" style="stop-color:#ffd4a3;stop-opacity:1" />
            <stop offset="100%" style="stop-color:#ffb366;stop-opacity:1" />
        </linearGradient>
    </defs>
    
    <!-- Full background fill (no circle, fills entire canvas) -->
    <rect x="0" y="0" width="64" height="64" fill="#1e293b" rx="8"/>
    
    <!-- 8-bit Field Tech Character -->
    
    <!-- Hard Hat (Orange) -->
    <rect x="20" y="14" width="24" height="4" fill="#f97316"/>
    <rect x="18" y="18" width="28" height="2" fill="#ea580c"/>
    <rect x="24" y="12" width="16" height="2" fill="#fb923c"/>
    <rect x="22" y="16" width="4" height="2" fill="#fed7aa"/>
    
    <!-- Face/Head (Skin tone) -->
    <rect x="22" y="20" width="20" height="4" fill="#ffd4a3"/>
    <rect x="20" y="24" width="24" height="8" fill="#ffd4a3"/>
    
    <!-- Mustache (Brown) -->
    <rect x="24" y="28" width="4" height="2" fill="#78350f"/>
    <rect x="36" y="28" width="4" height="2" fill="#78350f"/>
    <rect x="22" y="30" width="20" height="2" fill="#78350f"/>
    
    <!-- Eyes (White with black pupils) -->
    <rect x="24" y="24" width="4" height="4" fill="#ffffff"/>
    <rect x="36" y="24" width="4" height="4" fill="#ffffff"/>
    <rect x="26" y="26" width="2" height="2" fill="#000000"/>
    <rect x="38" y="26" width="2" height="2" fill="#000000"/>
    
    <!-- Body - Orange Work Shirt -->
    <rect x="20" y="32" width="24" height="4" fill="#f97316"/>
    <rect x="18" y="36" width="28" height="8" fill="#f97316"/>
    
    <!-- Orange Overall Straps -->
    <rect x="24" y="32" width="4" height="12" fill="#3b82f6"/>
    <rect x="36" y="32" width="4" height="12" fill="#3b82f6"/>
    
    <!-- Overall Buttons (Yellow) -->
    <rect x="26" y="34" width="2" height="2" fill="#fbbf24"/>
    <rect x="38" y="34" width="2" height="2" fill="#fbbf24"/>
    
    <!-- Blue Overalls (Lower body) -->
    <rect x="22" y="44" width="20" height="8" fill="#3b82f6"/>
    <rect x="20" y="46" width="24" height="4" fill="#2563eb"/>
    
    <!-- Overall Pocket Detail -->
    <rect x="28" y="46" width="8" height="4" fill="#1e40af" opacity="0.5"/>
    
    <!-- Arms -->
    <rect x="14" y="36" width="4" height="8" fill="#ffd4a3"/>
    <rect x="46" y="36" width="4" height="8" fill="#ffd4a3"/>
    
    <!-- Hands holding tool -->
    <rect x="14" y="44" width="4" height="4" fill="#ffd4a3"/>
    <rect x="46" y="44" width="4" height="4" fill="#ffd4a3"/>
    
    <!-- Wrench Tool (Gray/Silver) -->
    <rect x="16" y="46" width="2" height="8" fill="#94a3b8"/>
    <rect x="14" y="46" width="6" height="2" fill="#94a3b8"/>
    <rect x="14" y="52" width="6" height="2" fill="#cbd5e1"/>
    
    <!-- Screwdriver Tool (Orange handle) -->
    <rect x="46" y="46" width="2" height="8" fill="#64748b"/>
    <rect x="44" y="54" width="6" height="2" fill="#f97316"/>
    <rect x="44" y="56" width="6" height="2" fill="#ea580c"/>
    
    <!-- Legs/Boots (Brown work boots) -->
    <rect x="22" y="52" width="8" height="4" fill="#2563eb"/>
    <rect x="34" y="52" width="8" height="4" fill="#2563eb"/>
    <rect x="22" y="56" width="8" height="4" fill="#78350f"/>
    <rect x="34" y="56" width="8" height="4" fill="#78350f"/>
    
    <!-- Boot Details (lighter brown) -->
    <rect x="22" y="56" width="8" height="2" fill="#92400e"/>
    <rect x="34" y="56" width="8" height="2" fill="#92400e"/>
    
    <!-- Pixel art style outline/shadow effects -->
    <rect x="20" y="32" width="2" height="2" fill="#000000" opacity="0.2"/>
    <rect x="42" y="32" width="2" height="2" fill="#000000" opacity="0.2"/>
</svg>
