<svg width="128" height="128" xmlns="http://www.w3.org/2000/svg" style="image-rendering: pixelated; image-rendering: crisp-edges;">
  <!-- Skin color base -->
  <rect x="32" y="16" width="64" height="16" fill="#FDBCB4"/>
  
  <!-- Hair (orange) -->
  <rect x="32" y="8" width="64" height="16" fill="#EA580C"/>
  <rect x="24" y="16" width="8" height="8" fill="#EA580C"/>
  <rect x="96" y="16" width="8" height="8" fill="#EA580C"/>
  
  <!-- Eyes (black) -->
  <rect x="40" y="24" width="8" height="8" fill="#000000"/>
  <rect x="80" y="24" width="8" height="8" fill="#000000"/>
  
  <!-- Eyes shine (white) -->
  <rect x="42" y="26" width="4" height="4" fill="#FFFFFF"/>
  <rect x="82" y="26" width="4" height="4" fill="#FFFFFF"/>
  
  <!-- Nose -->
  <rect x="60" y="32" width="8" height="4" fill="#F4A460"/>
  
  <!-- Mouth smile -->
  <rect x="48" y="40" width="4" height="4" fill="#000000"/>
  <rect x="52" y="44" width="4" height="4" fill="#000000"/>
  <rect x="56" y="44" width="4" height="4" fill="#000000"/>
  <rect x="60" y="44" width="4" height="4" fill="#000000"/>
  <rect x="64" y="44" width="4" height="4" fill="#000000"/>
  <rect x="68" y="44" width="4" height="4" fill="#000000"/>
  <rect x="72" y="44" width="4" height="4" fill="#000000"/>
  <rect x="76" y="40" width="4" height="4" fill="#000000"/>
  
  <!-- Neck -->
  <rect x="52" y="48" width="24" height="8" fill="#FDBCB4"/>
  
  <!-- Overalls (blue) -->
  <rect x="32" y="56" width="64" height="48" fill="#3B82F6"/>
  
  <!-- Overalls straps -->
  <rect x="40" y="56" width="8" height="24" fill="#1E40AF"/>
  <rect x="80" y="56" width="8" height="24" fill="#1E40AF"/>
  
  <!-- Overalls buttons (orange) -->
  <rect x="42" y="60" width="4" height="4" fill="#F97316"/>
  <rect x="82" y="60" width="4" height="4" fill="#F97316"/>
  
  <!-- Arms (skin) -->
  <rect x="16" y="64" width="16" height="32" fill="#FDBCB4"/>
  <rect x="96" y="64" width="16" height="32" fill="#FDBCB4"/>
  
  <!-- Hands -->
  <rect x="16" y="96" width="16" height="8" fill="#FDBCB4"/>
  <rect x="96" y="96" width="16" height="8" fill="#FDBCB4"/>
  
  <!-- Legs (blue darker) -->
  <rect x="40" y="104" width="16" height="24" fill="#1E3A8A"/>
  <rect x="72" y="104" width="16" height="24" fill="#1E3A8A"/>
  
  <!-- Shoes (black) -->
  <rect x="36" y="120" width="20" height="8" fill="#000000"/>
  <rect x="72" y="120" width="20" height="8" fill="#000000"/>
</svg>
